<?xml version="1.0" standalone="no"?>
<!DOCTYPE svg PUBLIC "-//W3C//DTD SVG 20010904//EN"
 "http://www.w3.org/TR/2001/REC-SVG-20010904/DTD/svg10.dtd">
<svg version="1.0" xmlns="http://www.w3.org/2000/svg"
 width="1024.000000pt" height="1024.000000pt" viewBox="0 0 1024.000000 1024.000000"
 preserveAspectRatio="xMidYMid meet">

<g transform="translate(0.000000,1024.000000) scale(0.100000,-0.100000)"
fill="#000000" stroke="none">
<path d="M4855 8930 c-631 -46 -1211 -223 -1735 -528 -86 -50 -343 -220 -387
-256 -10 -8 -56 -45 -103 -82 -671 -531 -1172 -1313 -1374 -2144 -83 -341
-111 -576 -111 -940 0 -405 31 -654 132 -1045 91 -354 271 -774 457 -1065 84
-131 173 -259 236 -337 14 -17 39 -48 55 -69 61 -78 173 -201 275 -304 466
-468 1007 -796 1645 -997 580 -182 1274 -222 1900 -107 1145 208 2147 925
2734 1956 421 740 591 1634 475 2493 -153 1132 -806 2161 -1769 2787 -179 116
-266 166 -435 247 -413 198 -831 320 -1273 371 -198 23 -547 33 -722 20z m475
-30 c862 -46 1659 -363 2335 -929 129 -107 385 -367 493 -499 143 -176 306
-413 402 -587 187 -335 336 -731 411 -1085 158 -753 102 -1515 -165 -2227
-204 -544 -529 -1035 -962 -1454 -493 -476 -1106 -817 -1769 -983 -700 -175
-1491 -148 -2175 75 -264 87 -612 242 -790 355 -41 26 -104 65 -140 88 -84 52
-329 235 -410 306 -198 172 -480 465 -548 570 -9 14 -32 45 -52 70 -142 176
-317 473 -439 743 -180 400 -280 774 -333 1252 -16 144 -16 575 0 740 95 967
537 1864 1239 2511 662 610 1461 969 2323 1044 230 20 360 22 580 10z"/>
<path d="M4855 8634 c-139 -14 -315 -38 -410 -55 -1113 -204 -2064 -909 -2594
-1922 -226 -431 -358 -890 -402 -1397 -15 -171 -6 -593 16 -750 97 -700 355
-1315 765 -1824 30 -38 64 -80 75 -95 69 -93 372 -393 470 -466 22 -16 42 -32
45 -36 16 -19 184 -139 295 -212 467 -305 978 -490 1553 -563 169 -21 580 -29
754 -15 863 74 1653 435 2258 1033 311 306 522 592 709 958 185 364 292 690
356 1085 34 214 45 351 45 585 0 302 -22 520 -77 770 -117 535 -324 991 -641
1419 -120 160 -194 247 -345 399 -415 421 -895 719 -1461 907 -229 76 -439
124 -706 161 -110 15 -609 28 -705 18z m596 -39 c791 -76 1527 -400 2110 -928
694 -628 1112 -1477 1190 -2412 15 -177 6 -567 -15 -735 -102 -780 -417 -1458
-944 -2030 -428 -464 -961 -806 -1550 -995 -360 -115 -646 -163 -1032 -172
-429 -10 -800 40 -1185 158 -321 99 -745 307 -984 481 -227 167 -299 227 -492
409 -70 66 -244 264 -308 349 -31 41 -60 79 -64 85 -140 174 -334 518 -438
778 -195 486 -278 947 -266 1471 13 524 112 956 329 1432 186 408 455 787 783
1102 619 596 1396 942 2280 1015 116 10 450 5 586 -8z"/>
<path d="M4928 7322 c-92 -64 -249 -173 -349 -242 -219 -150 -379 -261 -474
-327 -38 -27 -140 -97 -225 -157 -505 -350 -535 -372 -552 -406 -25 -50 -23
-119 5 -160 40 -60 133 -89 189 -59 12 7 132 89 267 183 135 94 276 191 312
216 144 98 506 349 600 415 151 107 352 245 380 262 28 17 20 22 299 -172 25
-17 155 -107 290 -200 135 -93 324 -224 420 -291 96 -67 210 -146 253 -175 43
-30 128 -89 189 -132 61 -44 128 -87 147 -98 50 -27 108 -25 154 6 47 32 67
71 67 130 0 82 -12 95 -205 227 -44 30 -149 103 -234 162 -85 59 -163 112
-173 117 -17 9 -18 29 -18 293 0 155 -2 285 -4 287 -2 2 -86 3 -185 1 l-181
-3 0 -150 c0 -83 -4 -149 -8 -147 -9 4 -42 27 -465 320 -171 120 -316 217
-322 217 -5 0 -85 -53 -177 -117z"/>
<path d="M5020 6423 c-187 -29 -357 -154 -438 -323 -48 -101 -67 -194 -59
-299 7 -100 37 -193 87 -270 l41 -63 -29 -102 c-16 -55 -60 -215 -98 -353
l-68 -253 -205 0 -206 0 2 576 c2 476 0 575 -11 571 -17 -7 -265 -174 -288
-195 -17 -14 -18 -53 -18 -538 0 -343 4 -541 11 -574 14 -63 55 -113 112 -135
36 -13 96 -15 442 -13 l400 3 77 290 c119 442 145 538 188 690 l39 140 -21 15
c-60 41 -116 110 -133 160 -92 278 251 493 458 286 73 -73 102 -208 63 -299
-20 -46 -79 -113 -119 -133 -22 -12 -28 -21 -24 -37 15 -69 161 -614 262 -977
13 -47 26 -97 29 -112 l6 -28 393 0 c243 0 406 4 430 11 21 5 53 24 72 40 66
59 66 53 63 659 l-3 545 -150 103 -150 103 -5 -573 -5 -573 -205 0 -205 0 -31
115 c-18 63 -60 216 -94 340 -34 124 -62 232 -62 240 -1 8 13 36 31 63 18 26
44 75 59 110 23 56 26 75 26 202 1 124 -2 147 -22 200 -106 271 -369 431 -642
388z"/>
<path d="M6575 3811 c-31 -13 -55 -45 -61 -83 -9 -50 26 -88 87 -95 38 -4 50
-1 77 22 52 43 43 119 -18 150 -32 16 -55 18 -85 6z"/>
<path d="M2230 3301 l0 -421 85 0 85 0 0 350 0 350 135 0 c117 0 141 -3 176
-20 53 -28 79 -72 79 -136 0 -98 -65 -154 -181 -154 -62 0 -67 1 -62 20 8 29
-5 25 -69 -24 l-58 -43 62 -59 c36 -34 63 -54 66 -46 2 7 21 12 45 12 42 0 42
0 92 -82 27 -46 62 -102 78 -125 l28 -43 90 0 91 0 -23 38 c-12 20 -51 80 -86
132 -60 92 -73 120 -54 120 4 0 28 18 53 40 64 55 92 124 91 220 0 123 -54
208 -163 259 -54 25 -61 26 -307 29 l-253 4 0 -421z"/>
<path d="M5125 3678 c25 -76 226 -701 242 -750 l15 -48 92 0 92 0 18 58 c57
186 170 528 177 536 5 6 10 3 13 -5 9 -27 118 -385 148 -486 l31 -103 91 0 91
1 135 407 c74 224 136 412 138 419 3 10 -18 13 -82 13 -62 0 -86 -3 -86 -12 0
-15 -188 -599 -195 -606 -2 -3 -7 1 -9 9 -2 8 -46 148 -97 312 l-93 297 -80 0
-81 0 -28 -93 c-79 -256 -171 -526 -178 -521 -5 3 -9 11 -9 17 0 7 -42 143
-93 302 l-94 290 -86 3 -86 3 14 -43z"/>
<path d="M4720 3595 l0 -85 -50 0 -50 0 0 -60 0 -60 49 0 50 0 3 -192 c3 -220
12 -250 80 -296 64 -42 202 -41 260 2 16 12 16 16 1 65 -15 45 -20 51 -38 45
-57 -18 -96 -16 -121 7 -24 22 -24 25 -24 196 l0 173 85 0 85 0 0 60 0 60 -85
0 -85 0 0 85 0 85 -80 0 -80 0 0 -85z"/>
<path d="M3283 3512 c-98 -35 -166 -109 -197 -212 -41 -136 8 -292 117 -371
61 -44 134 -62 236 -57 90 5 149 27 216 81 l29 25 -45 43 -45 44 -42 -28 c-79
-53 -197 -49 -262 9 -37 33 -65 86 -53 98 4 3 114 6 246 6 l240 0 -5 78 c-8
127 -62 219 -162 269 -69 35 -197 42 -273 15z m207 -131 c38 -20 86 -100 77
-126 -9 -22 -325 -23 -333 0 -9 22 37 96 75 122 44 30 130 32 181 4z"/>
<path d="M4159 3517 c-50 -19 -106 -55 -113 -72 -11 -30 -26 -14 -26 30 l0 45
-79 0 -80 0 0 -177 c-1 -98 2 -242 5 -320 l7 -143 73 0 74 0 0 138 c1 242 19
310 93 348 37 20 113 22 154 5 17 -7 40 -30 54 -54 23 -40 24 -53 27 -239 l4
-198 80 0 80 0 -4 233 c-5 250 -8 270 -64 336 -15 18 -45 41 -68 53 -51 26
-165 34 -217 15z"/>
<path d="M6992 3512 c-94 -34 -142 -98 -142 -190 0 -98 65 -150 227 -183 115
-23 143 -38 143 -78 0 -50 -30 -66 -129 -66 -73 0 -95 4 -149 29 -34 16 -64
27 -65 25 -17 -27 -46 -102 -42 -109 3 -4 35 -20 72 -35 82 -33 221 -45 302
-25 131 31 204 153 157 264 -24 58 -69 80 -235 116 -52 11 -103 27 -113 37
-25 23 -23 55 7 83 21 20 34 23 98 22 45 0 96 -8 133 -21 32 -11 59 -19 60
-18 0 1 9 24 20 52 10 27 20 53 22 56 2 4 -25 17 -60 29 -90 32 -235 37 -306
12z"/>
<path d="M7695 3517 c-67 -23 -101 -44 -144 -93 -141 -160 -94 -424 93 -522
47 -24 61 -27 166 -27 106 0 119 2 165 27 28 15 63 37 78 50 l28 23 -44 43
-45 44 -41 -27 c-54 -36 -151 -45 -216 -20 -49 18 -93 66 -97 106 l-3 24 244
0 243 0 -4 80 c-7 130 -61 221 -162 272 -62 31 -196 41 -261 20z m220 -157
c35 -34 62 -91 50 -110 -4 -6 -70 -10 -171 -10 l-164 0 0 24 c0 31 38 85 80
114 30 20 44 23 102 20 61 -3 71 -7 103 -38z"/>
<path d="M6530 3200 l0 -320 80 0 80 0 0 320 0 320 -80 0 -80 0 0 -320z"/>
</g>
</svg>
